<?xml version="1.0" encoding="UTF-8" standalone="no" ?>
<!DOCTYPE svg PUBLIC "-//W3C//DTD SVG 1.1//EN" "http://www.w3.org/Graphics/SVG/1.1/DTD/svg11.dtd">
<svg xmlns="http://www.w3.org/2000/svg" xmlns:xlink="http://www.w3.org/1999/xlink" version="1.1" width="500" height="500" viewBox="0 0 500 500" xml:space="preserve">
<desc>Created with Fabric.js 5.3.0</desc>
<defs>
</defs>
<g transform="matrix(0.2451954391 0 0 0.2730105129 250 206.1472044026)" id="Ckf9jUBYAox8MnD4G7sWG"  >
<path style="stroke: none; stroke-width: 0; stroke-dasharray: none; stroke-linecap: butt; stroke-dashoffset: 0; stroke-linejoin: miter; stroke-miterlimit: 4; fill: rgb(255,255,255); fill-rule: nonzero; opacity: 1;"  transform=" translate(-520.5256679672, -510.7412920606)" d="M 962.272 376.8 C 959.5200000000001 375.104 956.6400000000001 373.336 953.5920000000001 372.44 C 945.5120000000001 370.04 944.3600000000001 364.336 945.3520000000001 357.2 C 945.912 353.2 945.7520000000001 348.984 946.7920000000001 345.12 C 950.4480000000001 331.504 948.9760000000001 317.632 949.4720000000001 303.856 C 949.7120000000001 296.976 947.0720000000001 291.69599999999997 942.0000000000001 286.704 C 932.4480000000001 277.28000000000003 921.3200000000002 271.6 908.3840000000001 268.624 C 877.4480000000001 261.47200000000004 845.9040000000001 258.30400000000003 814.4640000000002 255.104 C 773.8240000000002 250.96800000000002 733.1520000000002 254.608 692.9600000000002 260.30400000000003 C 651.8400000000001 266.112 612.2400000000001 278.30400000000003 575.0880000000002 297.52000000000004 C 570.0320000000002 300.12000000000006 564.8160000000001 302.36800000000005 559.6720000000001 304.77600000000007 C 553.1680000000001 307.83200000000005 546.9040000000001 306.82400000000007 541.1120000000002 303.12800000000004 C 537.7520000000002 300.968 534.4240000000002 298.408 531.7120000000002 295.48800000000006 C 515.6480000000003 277.9680000000001 496.5760000000002 264.22400000000005 477.0160000000002 250.96000000000006 C 450.6560000000002 233.07200000000006 423.6560000000002 216.90400000000005 392.32000000000016 209.09600000000006 C 383.71200000000016 206.93600000000006 375.28000000000014 203.69600000000005 367.0400000000002 200.29600000000005 C 345.5680000000002 191.43200000000004 323.2800000000002 188.45600000000005 300.2400000000002 189.84000000000006 C 294.5600000000002 190.17600000000007 288.8480000000002 190.37600000000006 283.17600000000016 190.64000000000007 C 275.84000000000015 190.64000000000007 268.49600000000015 190.90400000000008 261.20800000000014 190.59200000000007 C 242.39200000000014 189.79200000000006 223.96800000000013 192.51200000000006 205.52800000000013 195.77600000000007 C 196.16800000000012 197.45600000000007 191.28800000000012 203.00800000000007 189.28800000000012 211.61600000000007 C 188.36800000000014 215.53600000000006 188.08800000000014 219.65600000000006 187.79200000000012 223.68000000000006 C 187.52000000000012 227.76000000000008 187.76800000000011 231.84000000000006 187.53600000000012 235.88000000000005 C 187.05600000000013 244.30400000000006 184.6960000000001 247.91200000000006 175.4800000000001 247.44000000000005 C 162.5200000000001 246.80000000000007 158.5200000000001 253.96000000000006 156.1360000000001 264.33600000000007 C 150.6960000000001 288.05600000000004 144.4160000000001 311.6160000000001 139.75200000000012 335.4560000000001 C 134.46555975043123 362.5106729099891 129.91986112480183 389.7048347583843 126.12000000000006 417.0080000000001 C 118.28000000000011 473.3280000000001 104.76000000000012 528.5120000000001 93.67200000000011 584.152 C 87.04344603928963 617.5467177252274 80.24335628517548 650.9071580483446 73.27199999999866 684.2319999999997 C 71.2320000000001 694.0480000000001 73.1280000000001 702.2320000000001 81.62400000000011 707.6480000000001 C 85.54400000000011 710.1280000000002 90.64800000000011 711.5440000000001 95.3520000000001 711.9680000000002 C 116.36800000000011 713.7280000000002 137.4480000000001 716.2640000000002 158.4720000000001 716.1040000000002 C 189.5440000000001 715.8640000000001 220.0720000000001 720.6240000000001 250.6640000000001 724.0880000000002 C 289.4400000000001 728.5280000000002 328.0400000000001 733.5280000000002 367.1280000000001 733.5920000000002 C 373.6080000000001 733.6160000000002 380.2160000000001 733.5120000000002 386.5360000000001 734.7120000000002 C 412.6800000000001 739.6160000000002 411.43200000000013 739.3680000000002 416.8080000000001 762.3360000000002 C 416.96800000000013 763.1360000000002 417.1680000000001 763.9600000000003 417.2720000000001 764.7360000000002 C 418.3120000000001 773.4160000000002 422.99200000000013 780.0960000000002 430.0720000000001 784.5760000000002 C 439.6560000000001 790.6240000000003 449.3520000000001 796.7520000000003 459.67200000000014 801.3440000000003 C 474.61600000000016 808.0000000000002 490.17600000000016 812.4240000000003 506.88800000000015 806.7840000000003 C 511.3840000000001 805.2640000000004 516.6320000000002 806.0880000000003 521.3680000000002 805.0240000000003 C 536.4320000000001 801.6160000000003 551.8080000000002 798.7040000000003 563.0160000000002 786.6640000000003 C 568.1520000000002 781.1760000000003 574.4880000000002 781.0880000000003 581.0480000000002 781.9440000000003 C 584.2240000000003 782.3920000000003 587.3040000000002 783.6240000000003 590.4320000000002 784.4800000000002 C 628.0800000000003 794.8400000000003 666.6720000000003 800.0000000000002 705.1360000000002 806.1120000000002 C 727.4560000000002 809.6800000000002 750.3600000000002 811.0480000000002 771.9360000000001 818.9280000000002 C 774.2160000000001 819.7280000000002 776.7120000000001 820.1120000000002 779.1040000000002 820.2640000000002 C 798.6480000000001 821.4000000000002 817.6480000000001 825.1760000000003 836.7200000000001 829.4480000000002 C 863.0640000000002 835.3360000000002 867.6000000000001 832.0880000000002 875.2480000000002 806.8480000000002 C 875.9680000000002 804.5440000000002 876.3680000000002 802.1120000000002 876.9600000000002 799.7440000000001 C 885.1680000000001 766.7200000000001 893.5200000000001 733.6960000000001 901.6240000000001 700.5840000000002 C 903.7040000000002 691.9440000000002 904.9600000000002 683.0880000000002 906.6640000000001 674.3440000000002 C 910.32 655.2240000000002 913.224 635.9440000000002 917.9120000000001 617.0880000000002 C 935.9440000000002 544.6720000000003 951.0640000000002 471.5920000000002 967.0800000000002 398.7200000000002 C 967.7600000000001 395.5840000000002 968.4000000000002 392.3440000000002 968.5200000000002 389.1600000000002 C 968.6960000000003 383.9920000000002 966.8000000000002 379.5600000000002 962.2640000000002 376.7600000000002 z M 143.44 609.712 C 146.224 607.184 150.256 605.136 153.944 604.736 C 161.14399999999998 604 168.504 604.528 174.064 604.528 C 201.88 604.32 227 610.688 252.192 616.392 C 252.89600000000002 616.552 253.45600000000002 617.3520000000001 254.088 617.8800000000001 C 253.048 618.7360000000001 251.968 620.3600000000001 250.944 620.3280000000001 C 238.016 619.984 224.968 620.3280000000001 212.248 618.488 C 204.048 617.32 196.47199999999998 617.6400000000001 188.37599999999998 618.6640000000001 C 174.77599999999998 620.4240000000001 160.95199999999997 620.6640000000001 147.21599999999998 621.1680000000001 C 145.18399999999997 621.2320000000001 141.456 619.3760000000001 141.32799999999997 618.1280000000002 C 141.03999999999996 615.3280000000002 141.63199999999998 611.4080000000001 143.48799999999997 609.7040000000002 z M 367.44 687.496 C 342.944 682.016 318.20799999999997 677.36 294.06399999999996 670.472 C 263.48799999999994 661.752 232.76799999999997 655.192 200.86399999999998 654.3919999999999 C 191.18399999999997 654.1199999999999 181.50399999999996 652.584 171.92 650.9519999999999 C 166.84799999999998 650.0719999999999 162.35999999999999 650.2639999999999 157.81599999999997 652.6319999999998 C 154.21599999999998 654.4719999999999 150.32799999999997 655.9119999999998 149.77599999999998 660.7439999999998 C 149.35199999999998 664.5999999999998 153.67999999999998 667.9999999999998 160.064 668.7839999999998 C 188.248 672.1439999999998 216.464 675.4479999999998 244.656 678.9439999999997 C 249.45600000000002 679.5519999999997 254.216 680.7839999999998 258.896 681.9839999999997 C 280.92 687.5679999999996 302.93600000000004 693.1839999999997 324.86400000000003 698.9679999999997 C 327.968 699.7919999999997 330.86400000000003 701.3839999999998 333.71200000000005 702.9199999999997 C 334.95200000000006 703.5839999999997 335.80800000000005 704.9519999999998 336.83200000000005 705.9919999999997 C 335.28800000000007 706.3919999999997 333.71200000000005 706.8559999999998 332.12800000000004 707.1759999999997 C 331.36000000000007 707.3359999999997 330.528 707.3199999999997 327.16800000000006 707.5199999999998 C 315.2320000000001 705.5679999999998 300.87200000000007 702.9599999999998 286.4480000000001 700.9599999999998 C 266.3680000000001 698.1439999999998 246.20800000000008 695.9199999999998 226.1280000000001 693.1759999999998 C 207.6640000000001 690.6559999999998 189.18400000000008 688.1199999999998 170.8480000000001 684.8559999999998 C 162.9600000000001 683.4559999999998 155.4320000000001 680.1039999999998 147.6720000000001 677.8159999999998 C 142.3120000000001 676.2479999999998 136.81600000000012 675.0959999999998 131.4640000000001 673.4719999999998 C 129.1760000000001 672.7919999999998 127.04800000000012 671.5279999999998 128.1520000000001 668.3279999999997 C 130.8400000000001 660.6079999999997 127.3040000000001 654.0879999999997 124.0400000000001 647.4879999999997 C 122.21850626995561 643.9589563282972 120.71393282369294 640.2751608442092 119.54400000000011 636.4799999999997 C 119.2480000000001 635.4399999999997 120.66400000000012 633.3999999999996 121.84800000000011 632.5599999999997 C 122.88800000000012 631.6799999999997 124.87200000000011 631.2479999999997 126.05600000000011 631.6559999999997 C 127.4000000000001 632.1679999999997 128.63200000000012 633.6559999999997 129.3600000000001 635.0159999999997 C 132.8480000000001 641.5359999999997 138.8000000000001 643.8559999999998 145.5200000000001 644.1599999999997 C 158.4800000000001 644.6959999999997 171.5520000000001 645.4399999999997 184.5280000000001 645.0239999999998 C 211.4880000000001 644.1279999999998 237.8640000000001 648.2399999999998 264.3840000000001 652.3839999999998 C 283.6640000000001 655.4239999999998 302.94400000000013 658.2799999999997 321.47200000000015 664.2799999999997 C 337.61600000000016 669.5119999999997 353.2640000000001 676.2639999999998 369.08800000000014 682.5199999999998 C 370.32800000000015 682.9999999999998 371.00800000000015 684.9039999999998 371.9280000000001 686.1199999999998 C 370.43200000000013 686.6239999999998 368.7600000000001 687.7999999999997 367.4480000000001 687.4959999999998 z M 396.736 645.752 C 349.032 618.584 296.816 603.712 243.93599999999998 591.0079999999999 C 217.92 584.7359999999999 191.51199999999997 580.256 164.53599999999997 580.728 C 157.27999999999997 580.8639999999999 153.95199999999997 576.8399999999999 155.41599999999997 569.848 C 160.16799999999998 546.8399999999999 164.75199999999998 523.7679999999999 170.42399999999998 500.99199999999996 C 182.58399999999997 452.19199999999995 191.67199999999997 402.832 198.59999999999997 353.048 C 199.81599999999997 344.304 201.52799999999996 335.184 205.25599999999997 327.288 C 211.68799999999996 313.608 213.61599999999999 299.432 213.73599999999996 284.712 C 213.83999999999997 266.03999999999996 213.73599999999996 247.35199999999998 213.93599999999995 228.664 C 213.97599999999994 222.10399999999998 216.87999999999994 219.35999999999999 222.75199999999995 220.368 C 248.55999999999995 224.864 274.31199999999995 224.72 300.304 221.77599999999998 C 314.08799999999997 220.224 327.784 223.296 340.94399999999996 227.76 C 361.64799999999997 234.82399999999998 382.67199999999997 241.16799999999998 402.80799999999994 249.68 C 425.96799999999996 259.488 448.08799999999997 271.30400000000003 466.19999999999993 289.712 C 476.97599999999994 300.64 489.5279999999999 309.824 501.3039999999999 319.76 C 504.4479999999999 322.36 507.8639999999999 324.59999999999997 510.95199999999994 327.23199999999997 C 524.4319999999999 338.75199999999995 534.728 351.792 531.832 371.33599999999996 C 529.432 387.33599999999996 527.08 403.36799999999994 524.552 419.376 C 521.888 436.176 519.064 452.936 516.256 469.71999999999997 C 514.376 480.888 513.0559999999999 492.2 510.472 503.2 C 499.328 550.512 487.79999999999995 597.736 476.392 644.9839999999999 C 475.832 647.352 475.20799999999997 649.7199999999999 474.456 652.0239999999999 C 471.17600000000004 661.9759999999999 467.81600000000003 671.8639999999999 464.504 681.7999999999998 C 452.05600000000004 680.6799999999998 442.264 673.3999999999999 432.024 667.3759999999999 C 420.144 660.4319999999999 408.744 652.6159999999999 396.776 645.7599999999999 z M 480.06399999999996 704.7919999999999 L 480.06399999999996 706.232 C 479.06399999999996 705.968 478.104 705.672 477.104 705.384 C 477.64 704.96 478.104 704.304 478.704 704.104 C 479.064 703.9680000000001 479.664 704.528 480.064 704.784 z M 536.064 766.9839999999999 C 522.096 777.6239999999999 506.04799999999994 782.184 486.99999999999994 781.9599999999999 C 476.50399999999996 783.2399999999999 466.35999999999996 779.2399999999999 457.75199999999995 770.8399999999999 C 453.11199999999997 766.3199999999999 448.496 761.776 443.792 757.3599999999999 C 437.87199999999996 751.824 436.64799999999997 744.9119999999999 437.792 737.3599999999999 C 438.01599999999996 735.9519999999999 439.59999999999997 733.5199999999999 440.272 733.6239999999999 C 442.432 733.944 445.952 734.824 446.32 736.1839999999999 C 452.024 758.1599999999999 468.92 766.6479999999999 488.688 770.8079999999999 C 501.568 773.5279999999999 514.592 773.7199999999999 524.184 761.6479999999999 C 525.7692746122952 759.836947453677 527.9816945913831 758.6935779554403 530.376 758.4479999999999 C 532.4399999999999 758.3199999999998 535.2719999999999 759.5359999999998 536.496 761.1279999999998 C 537.432 762.3519999999999 537.1519999999999 766.1359999999999 536.048 766.9919999999998 z M 543.68 741.0959999999999 C 541.04 741.4959999999999 538.3199999999999 741.6239999999999 535.64 741.8159999999999 C 535.56 742.0719999999999 535.4 742.2639999999999 535.36 742.584 C 534.744 742.568 534.112 742.5279999999999 533.48 742.5039999999999 C 523.864 747.5279999999999 510.47200000000004 751.2639999999999 503.896 750.5439999999999 C 503.32 750.4639999999998 502.32 749.6799999999998 502.36 749.3599999999999 C 502.44 748.6399999999999 502.93600000000004 747.6959999999999 503.56 747.3599999999999 C 506.968 745.4799999999999 510.336 742.5439999999999 513.92 742.2079999999999 C 520.384 741.6079999999998 526.9599999999999 742.2239999999998 533.4879999999999 742.4959999999999 C 533.8879999999999 742.2879999999999 534.3439999999999 742.0959999999999 534.728 741.8719999999998 L 535.664 741.8159999999998 C 536.584 738.8239999999998 539.12 738.1039999999998 541.944 738.0879999999999 C 543.3199999999999 738.0879999999999 544.7439999999999 738.7919999999998 546.1519999999999 739.1759999999998 C 545.352 739.8319999999998 544.5999999999999 740.9359999999998 543.7199999999999 741.0959999999998 z M 560.88 735.3359999999999 C 560.2291339041989 735.5422784312705 559.5407643402406 735.6023741868541 558.864 735.512 C 558.224 735.376 557.7040000000001 734.872 557.12 734.5279999999999 L 561.072 734.5279999999999 C 561.024 734.7679999999999 561.008 735.2959999999999 560.872 735.3279999999999 z M 577.84 730.9199999999998 C 577.2800000000001 730.9839999999998 576.6080000000001 730.2399999999999 576 729.8639999999998 C 577.392 729.5039999999998 578.76 728.9839999999998 580.16 728.8559999999998 C 580.7199999999999 728.7759999999997 581.36 729.5359999999997 581.952 729.8959999999997 C 580.608 730.2399999999998 579.248 730.7759999999997 577.856 730.9199999999997 z M 593.408 727.1199999999999 C 592.792 727.1999999999999 591.968 726.3999999999999 591.408 725.8399999999999 C 591.272 725.7119999999999 591.672 724.6399999999999 592.048 724.4639999999999 C 593.4583986611606 723.7454229198895 594.9311064314971 723.1563398117548 596.448 722.704 C 621.3919999999999 715.56 646.768 711.2159999999999 672.848 710.64 C 684.928 711.504 696.9839999999999 712.304 709.04 713.312 C 710.544 713.448 711.944 714.592 713.3919999999999 715.272 C 711.9519999999999 715.888 710.5519999999999 716.8960000000001 709.04 717.1120000000001 C 705.856 717.5920000000001 702.6239999999999 717.6320000000001 699.4 717.8720000000001 C 674.4399999999999 719.6800000000001 649.456 721.3120000000001 624.52 723.3600000000001 C 614.136 724.1920000000001 603.8 725.9040000000001 593.4159999999999 727.1040000000002 z M 851.672 760.5199999999999 C 848.2556046766108 769.5023645816495 844.8155927806896 778.4757289458146 841.3519999999994 787.4399999999997 C 831.752 790.0559999999998 822.4159999999999 786.7199999999998 813.112 785.5839999999998 C 796.3679999999999 783.5039999999998 779.832 779.9839999999998 763.192 777.0479999999999 C 761.592 776.8079999999999 759.936 776.8319999999999 758.368 776.4399999999999 C 747.6320000000001 773.76 738.912 766.04 726.528 766.5999999999999 C 716.344 767.0799999999999 705.8240000000001 763.8799999999999 695.696 761.3199999999999 C 684.7520000000001 758.584 674.096 754.7919999999999 663.328 751.3679999999999 C 662.096 750.9519999999999 661.088 749.824 659.9839999999999 749.0479999999999 C 661.536 748.6799999999998 663.0799999999999 748.0079999999999 664.6479999999999 747.9279999999999 C 679.1839999999999 747.2079999999999 693.7439999999999 746.5999999999999 704.7919999999999 746.1039999999999 C 741.4319999999999 747.2239999999999 774.5039999999999 748.584 806.9839999999999 756.0239999999999 C 816.6239999999999 758.2399999999999 826.2879999999999 757.3039999999999 835.8799999999999 755.1439999999999 C 839.7999999999998 754.2479999999999 843.7999999999998 753.2879999999999 847.7439999999999 753.3839999999999 C 849.136 753.4079999999999 850.5919999999999 756.3839999999999 851.8 758.1519999999999 C 852.144 758.6639999999999 851.92 759.776 851.656 760.5039999999999 z M 872.232 672.7599999999999 L 872.1519999999999 673.9439999999998 C 871.8799999999999 674.1439999999999 871.6959999999999 674.3839999999999 871.4559999999999 674.5999999999998 C 871.3439999999999 680.4879999999998 871.2959999999999 686.3599999999998 871.0159999999998 692.2319999999997 C 870.9599999999998 693.3119999999998 869.7599999999999 694.3599999999998 869.0799999999998 695.3999999999997 C 868.6559999999998 694.7439999999998 867.8799999999998 694.0559999999997 867.8799999999998 693.3999999999997 C 868.0879999999997 686.8959999999997 865.4479999999998 679.7679999999998 871.4479999999998 674.5839999999997 C 871.4479999999998 674.1599999999997 871.4719999999998 673.7599999999998 871.4799999999998 673.3359999999997 C 871.7839999999998 673.1519999999997 871.9599999999998 672.9359999999997 872.2319999999997 672.7359999999996 C 872.5359999999997 666.6799999999996 872.8559999999998 660.5999999999997 873.2399999999998 654.5599999999996 C 873.2879999999998 653.8239999999996 873.9599999999998 653.1199999999995 874.3599999999998 652.4319999999996 C 874.7759999999998 652.9439999999995 875.5439999999998 653.4719999999995 875.5439999999998 653.9839999999996 C 875.2879999999998 660.3839999999996 879.0159999999997 667.6639999999995 872.2319999999997 672.7199999999996 z M 858.992 575.7199999999999 C 851.192 610.4879999999999 845.336 645.7199999999999 838.856 680.776 C 837.656 687.096 837.856 693.736 837.176 700.192 C 836.6 706.016 832.3520000000001 709.128 827.2320000000001 707.752 C 826.464 707.544 825.6320000000001 707.4 824.912 707.064 C 792.9920000000001 692.528 758.432 686.48 725.096 676.408 C 715.096 673.384 704.5360000000001 671.368 694.088 670.648 C 656.472 668.056 619.592 671.984 583.784 684.6080000000001 C 561.6 692.4240000000001 539.2 699.6 516.88 707.008 C 513.52 708.1600000000001 510.68 705.808 510.74399999999997 702.048 C 510.808 698.8 510.712 695.52 511.224 692.328 C 515.496 665.9119999999999 520.448 639.608 524.056 613.1519999999999 C 528.6560000000001 579.328 536.272 546.1919999999999 544.36 513.1199999999999 C 548.232 497.3919999999999 550.92 481.3599999999999 553.688 465.39999999999986 C 557 446.1999999999999 560.4879999999999 427.03999999999985 562.568 407.71999999999986 C 564.512 390.01599999999985 565.048 372.11999999999983 565.552 354.25599999999986 C 566.448 323.57599999999985 560.856 327.6159999999999 593.488 314.91199999999986 C 622.264 303.69599999999986 651.8720000000001 294.94399999999985 682.2080000000001 289.5359999999999 C 710.9760000000001 284.37599999999986 740.1840000000001 282.0959999999999 769.2320000000001 283.7359999999999 C 810.416 280.93599999999986 850.416 288.4319999999999 890.576 294.1199999999999 C 898.48 295.2399999999999 906.096 298.5599999999999 913.696 301.3519999999999 C 919.272 303.4079999999999 921.168 307.24799999999993 919.936 312.8959999999999 C 916.464 328.7359999999999 912.84 344.5439999999999 909.192 360.3119999999999 C 892.408 432.1119999999999 875.16 503.8159999999999 859.016 575.752 z M 914.6719999999999 482.9519999999999 C 913.6159999999999 481.9919999999999 911.7599999999999 481.07999999999987 911.656 480.0239999999999 C 911.1759999999999 474.7439999999999 914.096 470.6159999999999 919.4159999999999 469.8239999999999 C 920.808 469.5839999999999 924.112 472.3439999999999 924.0239999999999 473.5439999999999 C 923.6799999999998 478.1839999999999 919.1119999999999 482.22399999999993 914.6639999999999 482.92799999999994 z M 826.7119999999999 456.3919999999999 C 821.8719999999998 453.6559999999999 816.4399999999998 451.1919999999999 810.9679999999998 450.3119999999999 C 778.1266735419086 445.1242681745614 745.2456888067201 440.19078709101626 712.3279999999933 435.5119999999979 C 707.4919753999277 434.78974433647943 702.580030037891 434.73053184444393 697.7279999999998 435.3359999999999 C 673.6239999999998 438.6159999999999 649.4639999999998 441.6959999999999 625.5039999999998 445.9199999999999 C 610.2799999999997 448.5839999999999 595.5839999999998 453.6479999999999 582.4319999999998 462.0799999999999 C 579.7919999999998 463.75999999999993 576.7519999999998 466.0399999999999 575.7359999999998 468.7199999999999 C 574.7759999999997 471.2799999999999 575.5919999999998 475.0719999999999 576.8959999999997 477.6799999999999 C 577.7119999999998 479.3039999999999 581.1199999999998 480.9199999999999 582.9519999999998 480.5359999999999 C 588.4719999999998 479.3359999999999 593.7759999999997 477.2559999999999 599.1279999999998 475.4159999999999 C 606.0079999999998 473.0639999999999 612.7599999999998 470.18399999999986 619.7679999999998 468.2959999999999 C 644.1519999999998 461.7519999999999 668.9999999999998 457.9199999999999 697.7119999999998 458.3199999999999 C 716.5679999999998 456.13599999999985 737.8719999999997 461.95999999999987 759.4079999999998 465.86399999999986 C 776.1599999999997 468.9039999999999 793.0079999999998 471.4399999999999 809.8879999999998 473.7599999999999 C 814.5679999999998 474.39999999999986 819.5279999999998 473.69599999999986 824.2879999999998 473.0959999999999 C 827.7679999999998 472.6719999999999 832.0479999999998 467.5519999999999 831.3119999999998 464.2159999999999 C 830.6719999999998 461.3759999999999 828.9919999999997 457.7679999999999 826.6719999999998 456.4159999999999 z M 796.1519999999999 562.6319999999998 C 792.322564362562 561.3140770305215 788.3959271929298 560.2976450656304 784.4079999999999 559.5919999999999 C 758.0079999999999 555.5279999999999 731.6399999999999 551.2959999999998 705.1839999999999 547.7759999999998 C 697.2319999999999 546.7199999999998 688.9199999999998 547.0959999999999 680.8639999999998 547.9039999999999 C 652.6879999999998 550.7039999999998 624.5119999999998 553.8239999999998 596.3839999999998 557.1839999999999 C 585.1439999999998 558.5439999999999 573.9839999999998 560.8479999999998 564.5199999999998 567.8559999999999 C 561.0479999999998 570.4159999999998 559.4799999999998 574.9759999999999 560.8639999999998 578.4959999999999 C 562.2399999999998 582.0959999999999 566.8079999999998 585.0559999999998 570.5119999999998 584.4639999999998 C 583.2799999999999 582.4799999999998 596.0079999999998 579.9839999999998 608.8639999999998 578.4159999999998 C 634.5439999999998 575.2959999999998 660.3199999999998 572.6559999999998 686.0639999999999 569.7999999999998 C 701.5839999999998 571.2239999999998 716.8239999999998 571.0639999999999 732.1119999999999 574.7599999999999 C 749.3759999999999 578.8959999999998 767.1839999999999 580.8959999999998 784.7519999999998 583.8159999999999 C 787.1279999999998 584.1919999999999 789.5519999999998 584.4559999999999 791.9679999999998 584.5039999999999 C 797.6479999999998 584.608 803.0879999999999 579.5439999999999 803.4719999999999 574.0239999999999 C 803.8159999999999 569.1439999999999 800.7519999999998 564.1039999999999 796.1519999999998 562.6159999999999 z M 849.0559999999999 343.77599999999984 C 843.3359999999999 340.93599999999986 837.0559999999999 338.44799999999987 830.776 337.6639999999998 C 793.0559999999999 332.9439999999998 755.384 327.1999999999998 717.112 326.6399999999998 C 695.352 328.5199999999998 673.544 329.7599999999998 651.88 332.4639999999998 C 635.736 334.4959999999998 620.76 340.99199999999985 606.376 348.6399999999998 C 605.696 349.0159999999998 605.072 349.5759999999998 604.4159999999999 350.04799999999983 C 600.1759999999999 352.97599999999983 597.9519999999999 359.40799999999984 600.3199999999999 362.6879999999998 C 603.0239999999999 366.40799999999984 607.1039999999999 367.21599999999984 611.1759999999999 365.9039999999998 C 616.536 364.14399999999983 621.704 361.82399999999984 626.9119999999999 359.58399999999983 C 639.7119999999999 354.11199999999985 652.992 350.9119999999998 666.992 351.0079999999998 C 723.576 351.3519999999998 780.4559999999999 346.9119999999998 836.288 360.6879999999998 C 839.344 361.40799999999984 842.7280000000001 360.9279999999998 845.928 360.70399999999984 C 849.472 360.44799999999987 853.048 356.38399999999984 852.696 351.9599999999998 C 852.44 349.0559999999998 851.1600000000001 344.8159999999998 849.072 343.7679999999998 z M 816.1199999999999 515.2319999999999 C 813.1152035406828 514.1365232002981 810.0351855548539 513.2595736348885 806.9039999999998 512.6079999999998 C 795.0399999999998 509.96799999999985 783.2479999999999 507.16799999999984 771.3439999999998 504.9279999999998 C 746.6639999999999 500.28799999999984 721.9519999999998 496.01599999999985 698.9919999999998 497.18399999999986 C 658.1919999999999 496.2719999999999 621.2079999999999 504.81599999999986 584.4879999999998 514.8319999999999 C 579.9919999999998 516.0559999999999 575.9519999999999 519.2079999999999 571.9679999999998 521.8479999999998 C 570.9279999999999 522.5279999999998 570.0799999999998 525.0479999999999 570.5439999999999 526.1119999999999 C 571.4239999999999 528.1279999999998 572.9839999999999 530.6159999999999 574.8639999999999 531.2719999999998 C 581.28 533.5519999999998 587.5039999999999 531.3279999999999 593.824 529.6559999999998 C 623.616 521.6239999999998 653.92 517.0799999999998 684.832 516.6159999999999 C 699.456 516.3759999999999 713.808 517.1519999999998 728.128 520.8399999999999 C 749.248 526.2639999999999 770.5920000000001 530.8639999999999 791.9440000000001 535.2639999999999 C 798.984 536.704 806.392 536.704 813.624 536.7999999999998 C 818.248 536.8239999999998 822.104 532.1039999999998 822.744 526.9839999999998 C 823.384 521.8639999999998 820.784 517.0319999999998 816.0880000000001 515.2079999999999 z M 829.7759999999998 396.06399999999985 C 822.7359999999999 394.14399999999983 815.6159999999999 392.62399999999985 808.4959999999999 391.26399999999984 C 800.5519999999999 389.74399999999986 792.5759999999999 388.14399999999983 784.5599999999998 387.42399999999986 C 763.5999999999998 385.52799999999985 742.6399999999999 383.18399999999986 721.6239999999998 382.6879999999999 C 703.8639999999998 382.2879999999999 686.0639999999999 384.47199999999987 668.2639999999998 385.03199999999987 C 647.8079999999998 385.67199999999985 628.3279999999997 391.2959999999999 608.8719999999997 396.6079999999999 C 602.0399999999997 398.4639999999999 595.7199999999997 402.7679999999999 589.6719999999997 406.6879999999999 C 587.2239999999997 408.2719999999999 585.4319999999997 411.59999999999985 584.4719999999996 414.5119999999999 C 583.8319999999997 416.4319999999999 584.6159999999996 419.51999999999987 585.9119999999997 421.1359999999999 C 587.2159999999997 422.73599999999993 589.9119999999997 423.4799999999999 592.1519999999997 423.9359999999999 C 593.5519999999997 424.2159999999999 595.3919999999997 423.53599999999994 596.7439999999997 422.7919999999999 C 613.3519999999996 413.71199999999993 631.4639999999997 409.3519999999999 649.9439999999997 407.0079999999999 C 672.4239999999998 404.17599999999993 694.7839999999998 399.0879999999999 717.5839999999997 401.43999999999994 C 748.9439999999997 404.68799999999993 780.5439999999998 406.1039999999999 811.3839999999997 413.40799999999996 C 815.3094684395505 414.3468611684774 819.3184763021787 414.8935440588358 823.3519999999996 415.03999999999996 C 831.1759999999996 415.104 835.9439999999996 411.69599999999997 836.8719999999996 407.35999999999996 C 837.7999999999996 403.008 834.5999999999996 397.34399999999994 829.7999999999996 396.032 z M 770.8159999999998 610.7279999999998 C 735.2159999999998 602.3679999999998 698.7599999999998 600.9519999999999 662.6079999999998 596.7839999999999 C 658.6879999999999 596.3279999999999 654.5039999999998 596.9199999999998 650.5279999999998 597.6319999999998 C 624.2879999999998 602.3119999999998 597.9999999999998 607.0159999999998 571.7839999999998 611.9919999999998 C 567.1039999999998 612.8719999999998 562.6319999999997 614.9359999999998 558.1279999999998 616.6319999999998 C 555.6479999999998 617.5919999999999 555.1679999999998 623.1759999999998 557.6159999999999 625.0799999999998 C 560.0719999999999 626.9599999999998 562.9519999999999 628.9999999999998 565.8319999999999 629.4479999999999 C 569.7519999999998 630.0079999999998 573.9119999999999 629.4959999999999 577.8639999999999 628.7279999999998 C 596.92 625.0479999999999 615.896 621.0079999999998 634.9519999999999 617.3519999999999 C 655.8319999999999 613.3679999999998 676.6559999999998 613.0719999999999 697.6479999999999 617.7519999999998 C 722.9039999999999 623.3679999999998 748.3519999999999 627.9759999999999 775.5199999999999 633.4079999999998 C 775.2559999999999 633.4079999999998 776.9039999999999 633.6639999999998 778.4639999999998 633.3519999999997 C 782.7279999999998 632.4319999999998 786.2479999999998 629.7519999999997 786.8079999999999 625.6239999999998 C 787.1759999999999 622.9599999999998 785.6079999999998 618.9039999999998 783.5279999999999 617.2479999999998 C 779.8879999999999 614.3119999999998 775.3439999999999 611.8239999999998 770.8079999999999 610.7679999999998 z M 443.096 564.48 C 439.4219209175352 560.1663190262408 435.18386314513526 556.3668665979051 430.496 553.184 C 406.304 536.784 380.79999999999995 522.784 354.176 510.784 C 341.408 505.024 328.224 501.712 315.18399999999997 503.248 C 289.07199999999995 504.872 264.04799999999994 506.408 239.02399999999997 507.944 C 238.21482574942027 507.98804891145977 237.40843708285954 508.0734940681814 236.60799999999998 508.2 C 231.80799999999996 509 228.95199999999997 514.4879999999999 230.44799999999998 519.16 C 232.92799999999997 526.92 237.82399999999998 531.8 246.128 532.04 C 259.87199999999996 532.376 273.64799999999997 531.9839999999999 287.424 532.472 C 297.06399999999996 532.816 306.72799999999995 533.64 316.26399999999995 535.0319999999999 C 336.3713816799363 537.8808252063114 355.6232950295684 545.0504844591444 372.6959999999999 556.0479999999999 C 387.65599999999995 565.6319999999998 402.67999999999995 575.1679999999999 417.736 584.6079999999998 C 421.816 587.1679999999998 425.84 590.2079999999999 430.296 591.4879999999998 C 441 594.5039999999998 450.032 586.1279999999998 448.032 575.1999999999998 C 447.30080294271556 571.2682193288008 445.59547774129567 567.582516474119 443.072 564.4799999999998 z M 242.64 338.584 C 246.2 340.28000000000003 250.2 341.224 254.11999999999998 341.904 C 278.864 346.224 303.512 350.888 327.96 356.736 C 371.79999999999995 367.248 412.62399999999997 384.4 449.936 409.816 C 456.632 414.376 463.72799999999995 418.376 470.816 422.32 C 473.57599999999996 423.856 476.864 425.328 479.888 425.328 C 482.792 425.304 486.328 424.048 488.464 422.128 C 491.136 419.64799999999997 490 415.864 487.664 413.488 C 483.6812697862138 409.463453513107 479.4113597292707 405.733632267374 474.8879999999999 402.328 C 432.008 370.304 384.168 349.048 332.072 337.28799999999995 C 309.968 332.28 287.992 326.18399999999997 260.992 326.67999999999995 C 257.73600000000005 326.91999999999996 250.40800000000002 327.0799999999999 243.192 328.06399999999996 C 241.536 328.28799999999995 239.096 331.224 239.072 332.94399999999996 C 239.008 334.864 240.88 337.71999999999997 242.672 338.592 z M 456.112 504.8 C 446.336 497.6 436.464 490.44 426.072 484.184 C 405.192 471.54400000000004 383.672 460.44000000000005 358.824 457.608 C 348.40000000000003 456.432 338.152 453.736 327.736 452.368 C 302.856 449.088 277.96 446.176 257.936 443.728 C 245.64799999999997 444.392 238.37599999999998 444.664 231.16799999999998 445.32800000000003 C 230.03199999999998 445.408 228.47199999999998 447.168 228.14399999999998 448.40000000000003 C 227.82399999999998 449.704 228.30399999999997 451.72 229.20799999999997 452.744 C 235.55999999999997 459.91200000000003 244.67999999999998 461.672 253.23999999999998 463.03200000000004 C 278.84 467.112 304.52 470.504 330.2 473.672 C 362.024 477.528 392.144 485.752 418.576 504.79200000000003 C 423.81600000000003 508.6 429.36 512.008 434.896 515.408 C 438.336 517.544 441.88800000000003 519.544 445.552 521.208 C 451.42400000000004 523.8639999999999 458.72 521.952 460.488 517.592 C 462.168 513.56 460.872 508.288 456.088 504.776 z M 265.896 277.824 C 272.136 279.76 278.35200000000003 281.6 284.712 282.904 C 319.856 290.18399999999997 353.472 301.528 385.328 318.344 C 411.888 332.392 439.248 344.952 462.75199999999995 364.18399999999997 C 466.45599999999996 367.19199999999995 471.12799999999993 369.11199999999997 475.55199999999996 371.06399999999996 C 479.83199999999994 372.936 485.19199999999995 370.40799999999996 487.95199999999994 365.91999999999996 C 490.4959999999999 361.78399999999993 489.55199999999996 357.74399999999997 486.43199999999996 354.89599999999996 C 481.65599999999995 350.57599999999996 476.43199999999996 346.73599999999993 471.07199999999995 343.13599999999997 C 437.16799999999995 320.472 400.376 303.11999999999995 363.53599999999994 286.09599999999995 C 336.14399999999995 273.3999999999999 306.68799999999993 267.17599999999993 276.27199999999993 262.94399999999996 C 274.3519999999999 262.94399999999996 271.91999999999996 262.79999999999995 269.4719999999999 262.984 C 265.34399999999994 263.328 261.48799999999994 264.376 259.71199999999993 268.808 C 258.5919999999999 271.688 261.61599999999993 276.488 265.90399999999994 277.808 z M 240.16 398.336 C 249.51999999999998 400.736 258.984 403.216 268.576 404.37600000000003 C 312.48 409.752 353.59200000000004 423.848 392.928 443.52000000000004 C 408.128 451.136 422.944 459.504 437.912 467.552 C 443.616 470.624 449.15999999999997 474.00800000000004 455.032 476.76800000000003 C 458.632 478.47200000000004 462.64799999999997 480.096 466.55199999999996 480.264 C 469.14399999999995 480.384 472.448 478.384 474.36799999999994 476.344 C 476.94399999999996 473.64799999999997 475.8399999999999 469.784 473.35999999999996 467.62399999999997 C 469.11999999999995 463.984 464.53599999999994 460.568 459.63199999999995 457.90399999999994 C 436.85012757484117 445.5530455409591 413.9883124800598 433.350121725057 391.0479999999965 421.29599999999704 C 371.63199999999995 411.0559999999999 351.1039999999999 403.45599999999996 330.0079999999999 397.7439999999999 C 306.6479999999999 391.4079999999999 283.2079999999999 384.5999999999999 258.5439999999999 384.36799999999994 C 252.91199999999992 384.7679999999999 247.10399999999993 384.6239999999999 241.6479999999999 385.87199999999996 C 239.00799999999992 386.472 235.7599999999999 389.23199999999997 234.8239999999999 391.75999999999993 C 233.5119999999999 395.3279999999999 237.2799999999999 397.5999999999999 240.1599999999999 398.3519999999999 z" stroke-linecap="round" />
</g>
</svg>